<svg id="visual" viewBox="0 0 1200 1000" width="1200" height="1000" xmlns="http://www.w3.org/2000/svg" xmlns:xlink="http://www.w3.org/1999/xlink" version="1.1"><rect x="0" y="0" width="1200" height="1000" fill="#FAFAFA"></rect><defs><linearGradient id="grad1_0" x1="16.7%" y1="0%" x2="100%" y2="100%"><stop offset="26%" stop-color="#219ebc" stop-opacity="1"></stop><stop offset="74%" stop-color="#219ebc" stop-opacity="1"></stop></linearGradient></defs><defs><linearGradient id="grad1_1" x1="16.7%" y1="0%" x2="100%" y2="100%"><stop offset="26%" stop-color="#219ebc" stop-opacity="1"></stop><stop offset="74%" stop-color="#7ebcd0" stop-opacity="1"></stop></linearGradient></defs><defs><linearGradient id="grad1_2" x1="16.7%" y1="0%" x2="100%" y2="100%"><stop offset="26%" stop-color="#bedbe5" stop-opacity="1"></stop><stop offset="74%" stop-color="#7ebcd0" stop-opacity="1"></stop></linearGradient></defs><defs><linearGradient id="grad1_3" x1="16.7%" y1="0%" x2="100%" y2="100%"><stop offset="26%" stop-color="#bedbe5" stop-opacity="1"></stop><stop offset="74%" stop-color="#fafafa" stop-opacity="1"></stop></linearGradient></defs><defs><linearGradient id="grad2_0" x1="0%" y1="0%" x2="83.3%" y2="100%"><stop offset="26%" stop-color="#219ebc" stop-opacity="1"></stop><stop offset="74%" stop-color="#219ebc" stop-opacity="1"></stop></linearGradient></defs><defs><linearGradient id="grad2_1" x1="0%" y1="0%" x2="83.3%" y2="100%"><stop offset="26%" stop-color="#7ebcd0" stop-opacity="1"></stop><stop offset="74%" stop-color="#219ebc" stop-opacity="1"></stop></linearGradient></defs><defs><linearGradient id="grad2_2" x1="0%" y1="0%" x2="83.3%" y2="100%"><stop offset="26%" stop-color="#7ebcd0" stop-opacity="1"></stop><stop offset="74%" stop-color="#bedbe5" stop-opacity="1"></stop></linearGradient></defs><defs><linearGradient id="grad2_3" x1="0%" y1="0%" x2="83.3%" y2="100%"><stop offset="26%" stop-color="#fafafa" stop-opacity="1"></stop><stop offset="74%" stop-color="#bedbe5" stop-opacity="1"></stop></linearGradient></defs><g transform="translate(1200, 0)"><path d="M0 781C-66.6 704 -133.1 627 -189.4 583C-245.8 539 -291.9 528.2 -379.7 522.6C-467.6 517.1 -597.2 516.8 -631.9 459.1C-666.5 401.3 -606.3 286 -615.3 199.9C-624.4 113.8 -702.7 56.9 -781 0L0 0Z" fill="#dceaf0"></path><path d="M0 585.8C-49.9 528 -99.8 470.2 -142.1 437.2C-184.3 404.3 -218.9 396.1 -284.8 392C-350.7 387.8 -447.9 387.6 -473.9 344.3C-499.9 301 -454.7 214.5 -461.5 150C-468.3 85.4 -527 42.7 -585.8 0L0 0Z" fill="#9fcbdb"></path><path d="M0 390.5C-33.3 352 -66.6 313.5 -94.7 291.5C-122.9 269.5 -145.9 264.1 -189.9 261.3C-233.8 258.5 -298.6 258.4 -315.9 229.5C-333.3 200.7 -303.1 143 -307.7 100C-312.2 56.9 -351.3 28.5 -390.5 0L0 0Z" fill="#59adc6"></path><path d="M0 195.3C-16.6 176 -33.3 156.7 -47.4 145.7C-61.4 134.8 -73 132 -94.9 130.7C-116.9 129.3 -149.3 129.2 -158 114.8C-166.6 100.3 -151.6 71.5 -153.8 50C-156.1 28.5 -175.7 14.2 -195.3 0L0 0Z" fill="#219ebc"></path></g><g transform="translate(0, 1000)"><path d="M0 -781C70.8 -739.6 141.7 -698.1 220.9 -680C300.2 -661.9 388 -667 459.1 -631.9C530.2 -596.7 584.6 -521.2 611.6 -444.4C638.6 -367.5 638.3 -289.4 661.9 -215.1C685.6 -140.8 733.3 -70.4 781 0L0 0Z" fill="#dceaf0"></path><path d="M0 -585.8C53.1 -554.7 106.2 -523.6 165.7 -510C225.2 -496.4 291 -500.3 344.3 -473.9C397.6 -447.5 438.4 -390.9 458.7 -333.3C479 -275.6 478.7 -217 496.5 -161.3C514.2 -105.6 550 -52.8 585.8 0L0 0Z" fill="#9fcbdb"></path><path d="M0 -390.5C35.4 -369.8 70.8 -349.1 110.5 -340C150.1 -330.9 194 -333.5 229.5 -315.9C265.1 -298.3 292.3 -260.6 305.8 -222.2C319.3 -183.8 319.1 -144.7 331 -107.5C342.8 -70.4 366.7 -35.2 390.5 0L0 0Z" fill="#59adc6"></path><path d="M0 -195.3C17.7 -184.9 35.4 -174.5 55.2 -170C75.1 -165.5 97 -166.8 114.8 -158C132.5 -149.2 146.1 -130.3 152.9 -111.1C159.7 -91.9 159.6 -72.3 165.5 -53.8C171.4 -35.2 183.3 -17.6 195.3 0L0 0Z" fill="#219ebc"></path></g></svg>