<svg id="visual" viewBox="0 0 1200 1000" width="1200" height="1000" xmlns="http://www.w3.org/2000/svg" xmlns:xlink="http://www.w3.org/1999/xlink" version="1.1"><rect width="1200" height="1000" fill="#FAFAFA"></rect><g><g transform="translate(654 91)"><path d="M73 -81.6C98.1 -65.9 124.4 -46.2 128.5 -22.7C132.6 0.8 114.5 28.3 99.2 59.7C83.9 91.1 71.4 126.5 45.6 144C19.8 161.6 -19.3 161.1 -50.7 146.6C-82.1 132 -105.7 103.3 -115.3 73.1C-125 42.9 -120.7 11.2 -115.4 -20.6C-110.1 -52.4 -103.8 -84.3 -84.4 -101.1C-65 -117.8 -32.5 -119.4 -4.3 -114.2C23.9 -109.1 47.9 -97.4 73 -81.6Z" stroke="#219EBC" fill="none" stroke-width="20"></path></g><g transform="translate(810 725)"><path d="M81.6 -93.7C110 -73.3 140.5 -51.7 147.9 -24C155.3 3.8 139.7 37.7 119.7 66C99.7 94.3 75.2 116.9 47.3 124.9C19.3 132.9 -12.1 126.4 -43.5 116.3C-74.8 106.3 -106 92.7 -124.7 68.2C-143.4 43.6 -149.6 8.1 -141.1 -22.2C-132.5 -52.4 -109.2 -77.4 -83.2 -98.3C-57.3 -119.2 -28.6 -136 -1 -134.8C26.5 -133.5 53.1 -114.2 81.6 -93.7Z" stroke="#219EBC" fill="none" stroke-width="20"></path></g><g transform="translate(402 343)"><path d="M82.6 -103C99.7 -84.1 101.1 -51.1 104.7 -20C108.4 11 114.2 40.2 103.5 60.7C92.8 81.2 65.5 93.2 37.3 104.1C9.1 115.1 -20 125 -41.7 116.3C-63.4 107.7 -77.7 80.4 -90.8 54.1C-103.9 27.9 -115.8 2.7 -116.5 -25.2C-117.1 -53.1 -106.4 -83.6 -85.1 -101.8C-63.8 -120 -31.9 -125.8 0.4 -126.3C32.7 -126.8 65.5 -121.9 82.6 -103Z" stroke="#219EBC" fill="none" stroke-width="20"></path></g><g transform="translate(10 236)"><path d="M86.5 -110.1C104.2 -88.3 105.1 -53.5 109.4 -20.5C113.7 12.4 121.5 43.5 111 66.3C100.5 89 71.7 103.5 43.3 110C14.8 116.5 -13.3 115 -40.7 107.1C-68.2 99.2 -95.1 84.8 -113.9 61.3C-132.8 37.9 -143.6 5.3 -136 -21.7C-128.5 -48.6 -102.6 -70.1 -76.9 -90.4C-51.2 -110.7 -25.6 -130 4.4 -135.2C34.4 -140.5 68.9 -131.8 86.5 -110.1Z" stroke="#219EBC" fill="none" stroke-width="20"></path></g><g transform="translate(1006 93)"><path d="M76.3 -90.1C99.1 -71.7 118.1 -47.9 121.8 -22.2C125.5 3.6 113.9 31.3 99.2 57.9C84.6 84.5 66.9 109.9 41.9 122.1C16.8 134.3 -15.7 133.3 -42.5 121.5C-69.4 109.7 -90.6 87.1 -101.9 61.7C-113.2 36.3 -114.5 7.9 -106.4 -15.3C-98.2 -38.6 -80.5 -56.7 -61.2 -75.7C-41.8 -94.7 -20.9 -114.7 2.9 -118.1C26.7 -121.6 53.4 -108.5 76.3 -90.1Z" stroke="#219EBC" fill="none" stroke-width="20"></path></g><g transform="translate(45 614)"><path d="M84 -103.5C106.2 -81.4 119.9 -52.5 126 -21.6C132.2 9.2 130.9 42 117.7 70.8C104.5 99.6 79.4 124.5 51.8 128.5C24.3 132.5 -5.8 115.6 -36.7 103.3C-67.6 91 -99.3 83.3 -115 63C-130.7 42.8 -130.4 9.9 -124.1 -21.2C-117.8 -52.4 -105.6 -81.8 -83.9 -104C-62.2 -126.2 -31.1 -141.1 -0.1 -141C30.9 -140.8 61.7 -125.6 84 -103.5Z" stroke="#219EBC" fill="none" stroke-width="20"></path></g><g transform="translate(438 748)"><path d="M74.5 -93.3C95.7 -71.1 111.2 -46.7 115.7 -20.5C120.2 5.7 113.7 33.8 98.7 54.4C83.7 75 60.3 88 34.4 99.6C8.6 111.2 -19.7 121.4 -41.6 113.7C-63.4 105.9 -79 80.3 -96.2 53.9C-113.5 27.5 -132.4 0.4 -130.3 -25C-128.3 -50.4 -105.2 -74.1 -79.9 -95.6C-54.7 -117.1 -27.4 -136.3 -0.3 -136C26.7 -135.6 53.4 -115.6 74.5 -93.3Z" stroke="#219EBC" fill="none" stroke-width="20"></path></g><g transform="translate(1088 486)"><path d="M74.4 -88.6C96.2 -70.3 113.7 -46.7 118 -21C122.3 4.7 113.4 32.5 100.3 60.5C87.3 88.5 70 116.7 43.8 130.7C17.7 144.7 -17.4 144.5 -43 130.1C-68.5 115.6 -84.5 86.8 -99 58.7C-113.4 30.5 -126.4 3 -124.5 -24.5C-122.6 -51.9 -106 -79.2 -82.8 -97.2C-59.6 -115.3 -29.8 -124.1 -1.8 -122C26.2 -119.8 52.5 -106.8 74.4 -88.6Z" stroke="#219EBC" fill="none" stroke-width="20"></path></g><g transform="translate(163 989)"><path d="M78.1 -99.3C97.1 -77.2 105.4 -48.6 109.5 -20.1C113.6 8.4 113.4 36.9 101.6 59.8C89.7 82.7 66.2 100.1 38.4 113.8C10.6 127.5 -21.6 137.7 -45.7 127.9C-69.7 118.1 -85.7 88.4 -98.3 59.9C-110.9 31.5 -120.2 4.3 -121.3 -26.9C-122.4 -58.2 -115.3 -93.6 -93.7 -115.2C-72.1 -136.9 -36.1 -144.9 -3.2 -141C29.6 -137.1 59.2 -121.4 78.1 -99.3Z" stroke="#219EBC" fill="none" stroke-width="20"></path></g></g></svg>