<svg id="visual" viewBox="0 0 1200 1000" width="1200" height="1000" xmlns="http://www.w3.org/2000/svg" xmlns:xlink="http://www.w3.org/1999/xlink" version="1.1"><path d="M0 171L33.3 182.7C66.7 194.3 133.3 217.7 200 217.7C266.7 217.7 333.3 194.3 400 172.7C466.7 151 533.3 131 600 122.7C666.7 114.3 733.3 117.7 800 154.3C866.7 191 933.3 261 1000 291C1066.7 321 1133.3 311 1166.7 306L1200 301L1200 0L1166.7 0C1133.3 0 1066.7 0 1000 0C933.3 0 866.7 0 800 0C733.3 0 666.7 0 600 0C533.3 0 466.7 0 400 0C333.3 0 266.7 0 200 0C133.3 0 66.7 0 33.3 0L0 0Z" fill="#219ebc"></path><path d="M0 231L33.3 266C66.7 301 133.3 371 200 374.3C266.7 377.7 333.3 314.3 400 294.3C466.7 274.3 533.3 297.7 600 292.7C666.7 287.7 733.3 254.3 800 284.3C866.7 314.3 933.3 407.7 1000 447.7C1066.7 487.7 1133.3 474.3 1166.7 467.7L1200 461L1200 299L1166.7 304C1133.3 309 1066.7 319 1000 289C933.3 259 866.7 189 800 152.3C733.3 115.7 666.7 112.3 600 120.7C533.3 129 466.7 149 400 170.7C333.3 192.3 266.7 215.7 200 215.7C133.3 215.7 66.7 192.3 33.3 180.7L0 169Z" fill="#61b0c8"></path><path d="M0 461L33.3 479.3C66.7 497.7 133.3 534.3 200 526C266.7 517.7 333.3 464.3 400 452.7C466.7 441 533.3 471 600 457.7C666.7 444.3 733.3 387.7 800 411C866.7 434.3 933.3 537.7 1000 596C1066.7 654.3 1133.3 667.7 1166.7 674.3L1200 681L1200 459L1166.7 465.7C1133.3 472.3 1066.7 485.7 1000 445.7C933.3 405.7 866.7 312.3 800 282.3C733.3 252.3 666.7 285.7 600 290.7C533.3 295.7 466.7 272.3 400 292.3C333.3 312.3 266.7 375.7 200 372.3C133.3 369 66.7 299 33.3 264L0 229Z" fill="#8cc2d5"></path><path d="M0 861L33.3 842.7C66.7 824.3 133.3 787.7 200 769.3C266.7 751 333.3 751 400 771C466.7 791 533.3 831 600 841C666.7 851 733.3 831 800 806C866.7 781 933.3 751 1000 746C1066.7 741 1133.3 761 1166.7 771L1200 781L1200 679L1166.7 672.3C1133.3 665.7 1066.7 652.3 1000 594C933.3 535.7 866.7 432.3 800 409C733.3 385.7 666.7 442.3 600 455.7C533.3 469 466.7 439 400 450.7C333.3 462.3 266.7 515.7 200 524C133.3 532.3 66.7 495.7 33.3 477.3L0 459Z" fill="#b2d4e1"></path><path d="M0 961L33.3 947.7C66.7 934.3 133.3 907.7 200 896C266.7 884.3 333.3 887.7 400 894.3C466.7 901 533.3 911 600 912.7C666.7 914.3 733.3 907.7 800 901C866.7 894.3 933.3 887.7 1000 897.7C1066.7 907.7 1133.3 934.3 1166.7 947.7L1200 961L1200 779L1166.7 769C1133.3 759 1066.7 739 1000 744C933.3 749 866.7 779 800 804C733.3 829 666.7 849 600 839C533.3 829 466.7 789 400 769C333.3 749 266.7 749 200 767.3C133.3 785.7 66.7 822.3 33.3 840.7L0 859Z" fill="#d6e7ee"></path><path d="M0 1001L33.3 1001C66.7 1001 133.3 1001 200 1001C266.7 1001 333.3 1001 400 1001C466.7 1001 533.3 1001 600 1001C666.7 1001 733.3 1001 800 1001C866.7 1001 933.3 1001 1000 1001C1066.7 1001 1133.3 1001 1166.7 1001L1200 1001L1200 959L1166.7 945.7C1133.3 932.3 1066.7 905.7 1000 895.7C933.3 885.7 866.7 892.3 800 899C733.3 905.7 666.7 912.3 600 910.7C533.3 909 466.7 899 400 892.3C333.3 885.7 266.7 882.3 200 894C133.3 905.7 66.7 932.3 33.3 945.7L0 959Z" fill="#fafafa"></path></svg>