<svg id="visual" viewBox="0 0 1200 1000" width="1200" height="1000" xmlns="http://www.w3.org/2000/svg" xmlns:xlink="http://www.w3.org/1999/xlink" version="1.1"><path d="M0 191L20 202.7C40 214.3 80 237.7 120 246C160 254.3 200 247.7 240 237.7C280 227.7 320 214.3 360 194.3C400 174.3 440 147.7 480 134.3C520 121 560 121 600 127.7C640 134.3 680 147.7 720 169.3C760 191 800 221 840 227.7C880 234.3 920 217.7 960 221C1000 224.3 1040 247.7 1080 231C1120 214.3 1160 157.7 1180 129.3L1200 101L1200 0L1180 0C1160 0 1120 0 1080 0C1040 0 1000 0 960 0C920 0 880 0 840 0C800 0 760 0 720 0C680 0 640 0 600 0C560 0 520 0 480 0C440 0 400 0 360 0C320 0 280 0 240 0C200 0 160 0 120 0C80 0 40 0 20 0L0 0Z" fill="#219ebc"></path><path d="M0 311L20 336C40 361 80 411 120 412.7C160 414.3 200 367.7 240 354.3C280 341 320 361 360 351C400 341 440 301 480 277.7C520 254.3 560 247.7 600 251C640 254.3 680 267.7 720 284.3C760 301 800 321 840 341C880 361 920 381 960 389.3C1000 397.7 1040 394.3 1080 359.3C1120 324.3 1160 257.7 1180 224.3L1200 191L1200 99L1180 127.3C1160 155.7 1120 212.3 1080 229C1040 245.7 1000 222.3 960 219C920 215.7 880 232.3 840 225.7C800 219 760 189 720 167.3C680 145.7 640 132.3 600 125.7C560 119 520 119 480 132.3C440 145.7 400 172.3 360 192.3C320 212.3 280 225.7 240 235.7C200 245.7 160 252.3 120 244C80 235.7 40 212.3 20 200.7L0 189Z" fill="#6cb4cc"></path><path d="M0 431L20 449.3C40 467.7 80 504.3 120 511C160 517.7 200 494.3 240 487.7C280 481 320 491 360 479.3C400 467.7 440 434.3 480 406C520 377.7 560 354.3 600 356C640 357.7 680 384.3 720 407.7C760 431 800 451 840 472.7C880 494.3 920 517.7 960 522.7C1000 527.7 1040 514.3 1080 481C1120 447.7 1160 394.3 1180 367.7L1200 341L1200 189L1180 222.3C1160 255.7 1120 322.3 1080 357.3C1040 392.3 1000 395.7 960 387.3C920 379 880 359 840 339C800 319 760 299 720 282.3C680 265.7 640 252.3 600 249C560 245.7 520 252.3 480 275.7C440 299 400 339 360 349C320 359 280 339 240 352.3C200 365.7 160 412.3 120 410.7C80 409 40 359 20 334L0 309Z" fill="#9fcbdb"></path><path d="M0 861L20 844.3C40 827.7 80 794.3 120 761C160 727.7 200 694.3 240 694.3C280 694.3 320 727.7 360 752.7C400 777.7 440 794.3 480 806C520 817.7 560 824.3 600 794.3C640 764.3 680 697.7 720 681C760 664.3 800 697.7 840 719.3C880 741 920 751 960 764.3C1000 777.7 1040 794.3 1080 801C1120 807.7 1160 804.3 1180 802.7L1200 801L1200 339L1180 365.7C1160 392.3 1120 445.7 1080 479C1040 512.3 1000 525.7 960 520.7C920 515.7 880 492.3 840 470.7C800 449 760 429 720 405.7C680 382.3 640 355.7 600 354C560 352.3 520 375.7 480 404C440 432.3 400 465.7 360 477.3C320 489 280 479 240 485.7C200 492.3 160 515.7 120 509C80 502.3 40 465.7 20 447.3L0 429Z" fill="#cde2ea"></path><path d="M0 1001L20 1001C40 1001 80 1001 120 1001C160 1001 200 1001 240 1001C280 1001 320 1001 360 1001C400 1001 440 1001 480 1001C520 1001 560 1001 600 1001C640 1001 680 1001 720 1001C760 1001 800 1001 840 1001C880 1001 920 1001 960 1001C1000 1001 1040 1001 1080 1001C1120 1001 1160 1001 1180 1001L1200 1001L1200 799L1180 800.7C1160 802.3 1120 805.7 1080 799C1040 792.3 1000 775.7 960 762.3C920 749 880 739 840 717.3C800 695.7 760 662.3 720 679C680 695.7 640 762.3 600 792.3C560 822.3 520 815.7 480 804C440 792.3 400 775.7 360 750.7C320 725.7 280 692.3 240 692.3C200 692.3 160 725.7 120 759C80 792.3 40 825.7 20 842.3L0 859Z" fill="#fafafa"></path></svg>